# xmcd
# Copyright (C) 1995-1998 Ti Kan
#
# Track frame offsets:
#       150
#       18702
#       38980
#       59860
#       75540
#       92948
#       109082
#       128811
#       140842
#       157969
#       171733
#       186351
#       204226
#       227117
#       247962
#
# Disc length: 3512 seconds
#
# Revision: 14
# Processed by: cddbd v1.5.1PL0 Copyright (c) Steve Scherf et al.
# Submitted via: CD-Transfer v1.0
#
DISCID=db0db60f
DTITLE=Kings Of Convenience - Euroexpress 577
DYEAR=04
DGENRE=
TTITLE0=Welcome To My Truth
TTITLE1=Heavy On My Heart
TTITLE2=Hermanita
TTITLE3=Angel
TTITLE4=Holidays In Spain
TTITLE5=Stay 2004
TTITLE6=Say It
TTITLE7=Hey Julie
TTITLE8=How You Do (Lp Vers.)
TTITLE9=Guns Don't Kill People Rappers Do (Clean Vers.)
TTITLE10=Poison
TTITLE11=If You Go Breaking My Heart
TTITLE12=Believe (Kontact Radio Edit)
TTITLE13=Badshaped
TTITLE14=I'd Rather Dance With You (Album Vers.)
EXTD=
EXTT0=
EXTT1=
EXTT2=
EXTT3=
EXTT4=
EXTT5=
EXTT6=
EXTT7=
EXTT8=
EXTT9=
EXTT10=
EXTT11=
EXTT12=
EXTT13=
EXTT14=
PLAYORDER=
